<svg width="492" height="121" viewBox="0 0 492 121" fill="none" xmlns="http://www.w3.org/2000/svg">
<path d="M103.28 103.28C94.9405 111.619 84.3453 117.34 72.7977 119.737C61.2501 122.134 49.2536 121.104 38.2837 116.773C27.3138 112.442 17.8489 105 11.0532 95.3607C4.25751 85.7216 0.427302 74.3064 0.0337014 62.5191C-0.359899 50.7318 2.70027 39.0865 8.83783 29.0156C14.9754 18.9446 23.9227 10.8871 34.5792 5.83408C45.2358 0.781097 57.1368 -1.047 68.8186 0.574628C80.5005 2.19626 91.4536 7.1969 100.331 14.9615L85.868 31.4969C80.2141 26.5516 73.2381 23.3668 65.7981 22.334C58.358 21.3012 50.7783 22.4655 43.9912 25.6837C37.2042 28.9019 31.5057 34.0336 27.5967 40.4478C23.6878 46.8619 21.7388 54.2787 21.9894 61.7859C22.2401 69.2932 24.6796 76.5634 29.0077 82.7025C33.3359 88.8416 39.364 93.5818 46.3506 96.3401C53.3372 99.0983 60.9777 99.7544 68.3323 98.2276C75.6869 96.7008 82.4349 93.0576 87.7462 87.7463L103.28 103.28Z" fill="#80DAFD"/>
<circle cx="60.9082" cy="60.9056" r="13.2344" fill="#80DAFD"/>
<mask id="path-3-outside-1_3556_553" maskUnits="userSpaceOnUse" x="109" y="40" width="360" height="46" fill="black">
<rect fill="white" x="109" y="40" width="360" height="46"/>
<path d="M131.73 84.708C125.594 84.708 120.323 82.6233 115.918 78.454C111.513 74.2453 109.31 69.073 109.31 62.937C109.31 56.7617 111.237 51.5893 115.092 47.42C118.947 43.2113 123.883 41.107 129.901 41.107C134.621 41.107 139.4 41.8937 144.238 43.467L143.471 45.827C138.751 44.411 134.228 43.703 129.901 43.703C124.748 43.703 120.54 45.5517 117.275 49.249C114.01 52.9463 112.378 57.4697 112.378 62.819C112.378 68.1683 114.266 72.731 118.042 76.507C121.857 80.2437 126.42 82.112 131.73 82.112C136.371 82.112 140.383 81.404 143.766 79.988L144.651 81.994C143.156 82.8593 141.19 83.528 138.751 84C136.352 84.472 134.011 84.708 131.73 84.708ZM158.191 78.395C154.297 74.1863 152.35 69.014 152.35 62.878C152.35 56.742 154.297 51.5893 158.191 47.42C162.124 43.2113 167.08 41.107 173.059 41.107C179.038 41.107 183.994 43.2113 187.927 47.42C191.86 51.5893 193.827 56.742 193.827 62.878C193.827 69.014 191.86 74.1863 187.927 78.395C183.994 82.6037 179.038 84.708 173.059 84.708C167.08 84.708 162.124 82.6037 158.191 78.395ZM160.315 49.249C157.05 52.907 155.418 57.45 155.418 62.878C155.418 68.306 157.05 72.8687 160.315 76.566C163.619 80.2633 167.867 82.112 173.059 82.112C178.29 82.112 182.538 80.2633 185.803 76.566C189.107 72.8687 190.759 68.306 190.759 62.878C190.759 57.45 189.107 52.907 185.803 49.249C182.538 45.5517 178.29 43.703 173.059 43.703C167.828 43.703 163.58 45.5517 160.315 49.249ZM220.425 81.935C225.971 81.935 230.416 80.4403 233.759 77.451C237.142 74.4223 238.833 69.8793 238.833 63.822C238.833 57.7647 236.925 52.9463 233.11 49.367C229.334 45.7877 224.653 43.998 219.068 43.998C215.489 43.998 212.381 44.0963 209.746 44.293V81.463C212.303 81.7777 215.862 81.935 220.425 81.935ZM219.068 41.402C225.558 41.402 230.986 43.4277 235.352 47.479C239.718 51.491 241.901 56.9583 241.901 63.881C241.901 67.3817 241.331 70.489 240.19 73.203C239.089 75.8777 237.555 78.0213 235.588 79.634C231.537 82.8987 226.482 84.531 220.425 84.531C216.452 84.531 211.949 84.3147 206.914 83.882V41.815C210.926 41.5397 214.977 41.402 219.068 41.402ZM255.024 84V41.815H274.612V44.293H257.856V59.81H273.019V62.229H257.856V81.522H275.261V84H255.024ZM297.514 73.793L309.727 42.641H311.438L322.117 74.029C322.943 76.507 323.493 78.2967 323.769 79.398C324.083 78.1 324.634 76.33 325.421 74.088L336.277 41.815H339.227L324.536 84.354H322.884L311.969 53.084C311.811 52.5727 311.634 52.0613 311.438 51.55C311.28 51.0387 311.143 50.5863 311.025 50.193C310.907 49.7997 310.789 49.4653 310.671 49.19L310.435 48.482C310.395 48.2853 310.376 48.1673 310.376 48.128C309.904 49.544 309.294 51.1763 308.547 53.025L296.216 84.354H294.564L279.755 41.815H282.882L293.679 73.557C294.19 74.973 294.603 76.2513 294.918 77.392C295.272 78.5327 295.468 79.162 295.508 79.28C295.704 78.3753 296.373 76.5463 297.514 73.793ZM350.863 78.395C346.969 74.1863 345.022 69.014 345.022 62.878C345.022 56.742 346.969 51.5893 350.863 47.42C354.796 43.2113 359.752 41.107 365.731 41.107C371.71 41.107 376.666 43.2113 380.599 47.42C384.532 51.5893 386.499 56.742 386.499 62.878C386.499 69.014 384.532 74.1863 380.599 78.395C376.666 82.6037 371.71 84.708 365.731 84.708C359.752 84.708 354.796 82.6037 350.863 78.395ZM352.987 49.249C349.722 52.907 348.09 57.45 348.09 62.878C348.09 68.306 349.722 72.8687 352.987 76.566C356.291 80.2633 360.539 82.112 365.731 82.112C370.962 82.112 375.21 80.2633 378.475 76.566C381.779 72.8687 383.431 68.306 383.431 62.878C383.431 57.45 381.779 52.907 378.475 49.249C375.21 45.5517 370.962 43.703 365.731 43.703C360.5 43.703 356.252 45.5517 352.987 49.249ZM399.586 84V41.992C403.323 41.7167 406.45 41.579 408.967 41.579C412.979 41.579 416.283 42.6213 418.879 44.706C421.475 46.7513 422.773 49.662 422.773 53.438C422.773 55.9947 422.026 58.3743 420.531 60.577C419.036 62.7797 417.365 64.53 415.516 65.828C416.971 67.834 418.761 70.2333 420.885 73.026C423.048 75.7793 424.445 77.51 425.074 78.218C427.473 80.7747 430.187 82.23 433.216 82.584L433.157 84.472C430.758 84.4327 428.811 84.0787 427.316 83.41C425.821 82.702 424.386 81.64 423.009 80.224C421.672 78.808 418.309 74.4027 412.92 67.008C409.065 67.008 405.565 66.89 402.418 66.654V84H399.586ZM411.209 64.648C412.94 64.648 414.788 63.5073 416.755 61.226C418.722 58.9447 419.705 56.3093 419.705 53.32C419.705 50.2913 418.682 48.01 416.637 46.476C414.631 44.9027 411.956 44.116 408.613 44.116C406.843 44.116 404.778 44.1947 402.418 44.352V64.353C405.565 64.5497 408.495 64.648 411.209 64.648ZM463.79 41.815L445.854 62.229C448.253 65.1003 451.007 68.306 454.114 71.846C457.261 75.386 459.286 77.569 460.191 78.395C461.135 79.221 461.863 79.8503 462.374 80.283C462.925 80.6763 463.751 81.1287 464.852 81.64C465.953 82.112 467.133 82.4267 468.392 82.584L468.333 84.472C465.973 84.4327 464.026 84.0787 462.492 83.41C460.958 82.702 459.621 81.7973 458.48 80.696C457.339 79.5553 454.842 76.802 450.987 72.436C447.172 68.0307 444.3 64.6677 442.373 62.347L460.486 41.815H463.79ZM441.252 41.815V84H438.42V41.815H441.252Z"/>
</mask>
<path d="M131.73 84.708C125.594 84.708 120.323 82.6233 115.918 78.454C111.513 74.2453 109.31 69.073 109.31 62.937C109.31 56.7617 111.237 51.5893 115.092 47.42C118.947 43.2113 123.883 41.107 129.901 41.107C134.621 41.107 139.4 41.8937 144.238 43.467L143.471 45.827C138.751 44.411 134.228 43.703 129.901 43.703C124.748 43.703 120.54 45.5517 117.275 49.249C114.01 52.9463 112.378 57.4697 112.378 62.819C112.378 68.1683 114.266 72.731 118.042 76.507C121.857 80.2437 126.42 82.112 131.73 82.112C136.371 82.112 140.383 81.404 143.766 79.988L144.651 81.994C143.156 82.8593 141.19 83.528 138.751 84C136.352 84.472 134.011 84.708 131.73 84.708ZM158.191 78.395C154.297 74.1863 152.35 69.014 152.35 62.878C152.35 56.742 154.297 51.5893 158.191 47.42C162.124 43.2113 167.08 41.107 173.059 41.107C179.038 41.107 183.994 43.2113 187.927 47.42C191.86 51.5893 193.827 56.742 193.827 62.878C193.827 69.014 191.86 74.1863 187.927 78.395C183.994 82.6037 179.038 84.708 173.059 84.708C167.08 84.708 162.124 82.6037 158.191 78.395ZM160.315 49.249C157.05 52.907 155.418 57.45 155.418 62.878C155.418 68.306 157.05 72.8687 160.315 76.566C163.619 80.2633 167.867 82.112 173.059 82.112C178.29 82.112 182.538 80.2633 185.803 76.566C189.107 72.8687 190.759 68.306 190.759 62.878C190.759 57.45 189.107 52.907 185.803 49.249C182.538 45.5517 178.29 43.703 173.059 43.703C167.828 43.703 163.58 45.5517 160.315 49.249ZM220.425 81.935C225.971 81.935 230.416 80.4403 233.759 77.451C237.142 74.4223 238.833 69.8793 238.833 63.822C238.833 57.7647 236.925 52.9463 233.11 49.367C229.334 45.7877 224.653 43.998 219.068 43.998C215.489 43.998 212.381 44.0963 209.746 44.293V81.463C212.303 81.7777 215.862 81.935 220.425 81.935ZM219.068 41.402C225.558 41.402 230.986 43.4277 235.352 47.479C239.718 51.491 241.901 56.9583 241.901 63.881C241.901 67.3817 241.331 70.489 240.19 73.203C239.089 75.8777 237.555 78.0213 235.588 79.634C231.537 82.8987 226.482 84.531 220.425 84.531C216.452 84.531 211.949 84.3147 206.914 83.882V41.815C210.926 41.5397 214.977 41.402 219.068 41.402ZM255.024 84V41.815H274.612V44.293H257.856V59.81H273.019V62.229H257.856V81.522H275.261V84H255.024ZM297.514 73.793L309.727 42.641H311.438L322.117 74.029C322.943 76.507 323.493 78.2967 323.769 79.398C324.083 78.1 324.634 76.33 325.421 74.088L336.277 41.815H339.227L324.536 84.354H322.884L311.969 53.084C311.811 52.5727 311.634 52.0613 311.438 51.55C311.28 51.0387 311.143 50.5863 311.025 50.193C310.907 49.7997 310.789 49.4653 310.671 49.19L310.435 48.482C310.395 48.2853 310.376 48.1673 310.376 48.128C309.904 49.544 309.294 51.1763 308.547 53.025L296.216 84.354H294.564L279.755 41.815H282.882L293.679 73.557C294.19 74.973 294.603 76.2513 294.918 77.392C295.272 78.5327 295.468 79.162 295.508 79.28C295.704 78.3753 296.373 76.5463 297.514 73.793ZM350.863 78.395C346.969 74.1863 345.022 69.014 345.022 62.878C345.022 56.742 346.969 51.5893 350.863 47.42C354.796 43.2113 359.752 41.107 365.731 41.107C371.71 41.107 376.666 43.2113 380.599 47.42C384.532 51.5893 386.499 56.742 386.499 62.878C386.499 69.014 384.532 74.1863 380.599 78.395C376.666 82.6037 371.71 84.708 365.731 84.708C359.752 84.708 354.796 82.6037 350.863 78.395ZM352.987 49.249C349.722 52.907 348.09 57.45 348.09 62.878C348.09 68.306 349.722 72.8687 352.987 76.566C356.291 80.2633 360.539 82.112 365.731 82.112C370.962 82.112 375.21 80.2633 378.475 76.566C381.779 72.8687 383.431 68.306 383.431 62.878C383.431 57.45 381.779 52.907 378.475 49.249C375.21 45.5517 370.962 43.703 365.731 43.703C360.5 43.703 356.252 45.5517 352.987 49.249ZM399.586 84V41.992C403.323 41.7167 406.45 41.579 408.967 41.579C412.979 41.579 416.283 42.6213 418.879 44.706C421.475 46.7513 422.773 49.662 422.773 53.438C422.773 55.9947 422.026 58.3743 420.531 60.577C419.036 62.7797 417.365 64.53 415.516 65.828C416.971 67.834 418.761 70.2333 420.885 73.026C423.048 75.7793 424.445 77.51 425.074 78.218C427.473 80.7747 430.187 82.23 433.216 82.584L433.157 84.472C430.758 84.4327 428.811 84.0787 427.316 83.41C425.821 82.702 424.386 81.64 423.009 80.224C421.672 78.808 418.309 74.4027 412.92 67.008C409.065 67.008 405.565 66.89 402.418 66.654V84H399.586ZM411.209 64.648C412.94 64.648 414.788 63.5073 416.755 61.226C418.722 58.9447 419.705 56.3093 419.705 53.32C419.705 50.2913 418.682 48.01 416.637 46.476C414.631 44.9027 411.956 44.116 408.613 44.116C406.843 44.116 404.778 44.1947 402.418 44.352V64.353C405.565 64.5497 408.495 64.648 411.209 64.648ZM463.79 41.815L445.854 62.229C448.253 65.1003 451.007 68.306 454.114 71.846C457.261 75.386 459.286 77.569 460.191 78.395C461.135 79.221 461.863 79.8503 462.374 80.283C462.925 80.6763 463.751 81.1287 464.852 81.64C465.953 82.112 467.133 82.4267 468.392 82.584L468.333 84.472C465.973 84.4327 464.026 84.0787 462.492 83.41C460.958 82.702 459.621 81.7973 458.48 80.696C457.339 79.5553 454.842 76.802 450.987 72.436C447.172 68.0307 444.3 64.6677 442.373 62.347L460.486 41.815H463.79ZM441.252 41.815V84H438.42V41.815H441.252Z" fill="#80DAFD"/>
<path d="M115.918 78.454L115.711 78.6709L115.712 78.6719L115.918 78.454ZM115.092 47.42L115.312 47.6237L115.313 47.6226L115.092 47.42ZM144.238 43.467L144.523 43.5597L144.616 43.2745L144.331 43.1817L144.238 43.467ZM143.471 45.827L143.385 46.1143L143.666 46.1986L143.756 45.9197L143.471 45.827ZM117.275 49.249L117.05 49.0504L117.05 49.0504L117.275 49.249ZM118.042 76.507L117.83 76.7191L117.832 76.7213L118.042 76.507ZM143.766 79.988L144.04 79.8669L143.922 79.5976L143.65 79.7113L143.766 79.988ZM144.651 81.994L144.801 82.2536L145.034 82.1189L144.925 81.8729L144.651 81.994ZM138.751 84L138.694 83.7055L138.693 83.7056L138.751 84ZM131.73 84.708V84.408C125.67 84.408 120.473 82.352 116.124 78.2361L115.918 78.454L115.712 78.6719C120.174 82.8946 125.518 85.008 131.73 85.008V84.708ZM115.918 78.454L116.125 78.2371C111.78 74.0855 109.61 68.9917 109.61 62.937H109.31H109.01C109.01 69.1543 111.246 74.4052 115.711 78.6709L115.918 78.454ZM109.31 62.937H109.61C109.61 56.83 111.514 51.7325 115.312 47.6237L115.092 47.42L114.872 47.2163C110.961 51.4462 109.01 56.6934 109.01 62.937H109.31ZM115.092 47.42L115.313 47.6226C119.108 43.4797 123.962 41.407 129.901 41.407V41.107V40.807C123.804 40.807 118.786 42.943 114.871 47.2174L115.092 47.42ZM129.901 41.107V41.407C134.587 41.407 139.335 42.1879 144.145 43.7523L144.238 43.467L144.331 43.1817C139.465 41.5994 134.655 40.807 129.901 40.807V41.107ZM144.238 43.467L143.953 43.3743L143.186 45.7343L143.471 45.827L143.756 45.9197L144.523 43.5597L144.238 43.467ZM143.471 45.827L143.557 45.5397C138.813 44.1164 134.261 43.403 129.901 43.403V43.703V44.003C134.195 44.003 138.689 44.7056 143.385 46.1143L143.471 45.827ZM129.901 43.703V43.403C124.667 43.403 120.375 45.2854 117.05 49.0504L117.275 49.249L117.5 49.4476C120.705 45.8179 124.83 44.003 129.901 44.003V43.703ZM117.275 49.249L117.05 49.0504C113.733 52.8074 112.078 57.4032 112.078 62.819H112.378H112.678C112.678 57.5361 114.288 53.0853 117.5 49.4476L117.275 49.249ZM112.378 62.819H112.078C112.078 68.2477 113.997 72.8868 117.83 76.7191L118.042 76.507L118.254 76.2949C114.535 72.5752 112.678 68.0889 112.678 62.819H112.378ZM118.042 76.507L117.832 76.7213C121.703 80.5126 126.341 82.412 131.73 82.412V82.112V81.812C126.499 81.812 122.012 79.9748 118.252 76.2927L118.042 76.507ZM131.73 82.112V82.412C136.401 82.412 140.454 81.6996 143.882 80.2647L143.766 79.988L143.65 79.7113C140.313 81.1084 136.342 81.812 131.73 81.812V82.112ZM143.766 79.988L143.492 80.1091L144.377 82.1151L144.651 81.994L144.925 81.8729L144.04 79.8669L143.766 79.988ZM144.651 81.994L144.501 81.7344C143.045 82.5774 141.113 83.2373 138.694 83.7055L138.751 84L138.808 84.2945C141.266 83.8187 143.268 83.1413 144.801 82.2536L144.651 81.994ZM138.751 84L138.693 83.7056C136.311 84.1742 133.991 84.408 131.73 84.408V84.708V85.008C134.032 85.008 136.392 84.7698 138.809 84.2944L138.751 84ZM158.191 78.395L157.971 78.5987L157.972 78.5998L158.191 78.395ZM158.191 47.42L157.972 47.2152L157.972 47.2152L158.191 47.42ZM187.927 47.42L187.708 47.6248L187.709 47.6259L187.927 47.42ZM187.927 78.395L187.708 78.1902L187.708 78.1902L187.927 78.395ZM160.315 49.249L160.539 49.4488L160.54 49.4476L160.315 49.249ZM160.315 76.566L160.09 76.7646L160.091 76.7659L160.315 76.566ZM185.803 76.566L185.579 76.3661L185.578 76.3674L185.803 76.566ZM185.803 49.249L185.578 49.4476L185.58 49.4501L185.803 49.249ZM158.191 78.395L158.411 78.1913C154.572 74.0422 152.65 68.9443 152.65 62.878H152.35H152.05C152.05 69.0837 154.022 74.3305 157.971 78.5987L158.191 78.395ZM152.35 62.878H152.65C152.65 56.8117 154.572 51.7341 158.41 47.6248L158.191 47.42L157.972 47.2152C154.022 51.4446 152.05 56.6723 152.05 62.878H152.35ZM158.191 47.42L158.41 47.6248C162.284 43.4794 167.16 41.407 173.059 41.407V41.107V40.807C167.001 40.807 161.964 42.9432 157.972 47.2152L158.191 47.42ZM173.059 41.107V41.407C178.958 41.407 183.834 43.4794 187.708 47.6248L187.927 47.42L188.146 47.2152C184.154 42.9432 179.117 40.807 173.059 40.807V41.107ZM187.927 47.42L187.709 47.6259C191.586 51.7354 193.527 56.8126 193.527 62.878H193.827H194.127C194.127 56.6714 192.135 51.4433 188.145 47.2141L187.927 47.42ZM193.827 62.878H193.527C193.527 68.9434 191.586 74.0409 187.708 78.1902L187.927 78.395L188.146 78.5998C192.135 74.3318 194.127 69.0846 194.127 62.878H193.827ZM187.927 78.395L187.708 78.1902C183.834 82.3356 178.958 84.408 173.059 84.408V84.708V85.008C179.117 85.008 184.154 82.8718 188.146 78.5998L187.927 78.395ZM173.059 84.708V84.408C167.16 84.408 162.284 82.3356 158.41 78.1902L158.191 78.395L157.972 78.5998C161.964 82.8718 167.001 85.008 173.059 85.008V84.708ZM160.315 49.249L160.091 49.0492C156.772 52.7682 155.118 57.3848 155.118 62.878H155.418H155.718C155.718 57.5152 157.329 53.0458 160.539 49.4488L160.315 49.249ZM155.418 62.878H155.118C155.118 68.3712 156.772 73.0067 160.09 76.7646L160.315 76.566L160.54 76.3674C157.329 72.7306 155.718 68.2408 155.718 62.878H155.418ZM160.315 76.566L160.091 76.7659C163.455 80.5302 167.786 82.412 173.059 82.412V82.112V81.812C167.948 81.812 163.783 79.9964 160.539 76.3661L160.315 76.566ZM173.059 82.112V82.412C178.371 82.412 182.703 80.5307 186.028 76.7646L185.803 76.566L185.578 76.3674C182.374 79.996 178.21 81.812 173.059 81.812V82.112ZM185.803 76.566L186.027 76.7659C189.385 73.0082 191.059 68.3722 191.059 62.878H190.759H190.459C190.459 68.2398 188.829 72.7291 185.579 76.3661L185.803 76.566ZM190.759 62.878H191.059C191.059 57.3838 189.385 52.7668 186.026 49.0479L185.803 49.249L185.58 49.4501C188.829 53.0472 190.459 57.5162 190.459 62.878H190.759ZM185.803 49.249L186.028 49.0504C182.703 45.2843 178.371 43.403 173.059 43.403V43.703V44.003C178.21 44.003 182.374 45.819 185.578 49.4476L185.803 49.249ZM173.059 43.703V43.403C167.748 43.403 163.416 45.2843 160.09 49.0504L160.315 49.249L160.54 49.4476C163.744 45.819 167.908 44.003 173.059 44.003V43.703ZM233.759 77.451L233.959 77.6746L233.959 77.6745L233.759 77.451ZM233.11 49.367L232.904 49.5847L232.905 49.5858L233.11 49.367ZM209.746 44.293L209.724 43.9938L209.446 44.0146V44.293H209.746ZM209.746 81.463H209.446V81.7283L209.709 81.7608L209.746 81.463ZM235.352 47.479L235.148 47.6989L235.149 47.6999L235.352 47.479ZM240.19 73.203L239.913 73.0868L239.913 73.0888L240.19 73.203ZM235.588 79.634L235.776 79.8676L235.778 79.866L235.588 79.634ZM206.914 83.882H206.614V84.1573L206.888 84.1809L206.914 83.882ZM206.914 41.815L206.893 41.5157L206.614 41.5349V41.815H206.914ZM220.425 81.935V82.235C226.027 82.235 230.548 80.7241 233.959 77.6746L233.759 77.451L233.559 77.2274C230.283 80.1566 225.915 81.635 220.425 81.635V81.935ZM233.759 77.451L233.959 77.6745C237.425 74.5716 239.133 69.9347 239.133 63.822H238.833H238.533C238.533 69.824 236.859 74.2731 233.559 77.2275L233.759 77.451ZM238.833 63.822H239.133C239.133 57.6961 237.201 52.7933 233.315 49.1482L233.11 49.367L232.905 49.5858C236.65 53.0993 238.533 57.8332 238.533 63.822H238.833ZM233.11 49.367L233.316 49.1493C229.48 45.513 224.724 43.698 219.068 43.698V43.998V44.298C224.583 44.298 229.188 46.0623 232.904 49.5847L233.11 49.367ZM219.068 43.998V43.698C215.484 43.698 212.368 43.7965 209.724 43.9938L209.746 44.293L209.768 44.5922C212.394 44.3962 215.494 44.298 219.068 44.298V43.998ZM209.746 44.293H209.446V81.463H209.746H210.046V44.293H209.746ZM209.746 81.463L209.709 81.7608C212.284 82.0776 215.858 82.235 220.425 82.235V81.935V81.635C215.867 81.635 212.321 81.4777 209.783 81.1652L209.746 81.463ZM219.068 41.402V41.702C225.49 41.702 230.843 43.7039 235.148 47.6989L235.352 47.479L235.556 47.2591C231.129 43.1515 225.626 41.102 219.068 41.102V41.402ZM235.352 47.479L235.149 47.6999C239.443 51.6454 241.601 57.0269 241.601 63.881H241.901H242.201C242.201 56.8898 239.993 51.3366 235.555 47.2581L235.352 47.479ZM241.901 63.881H241.601C241.601 67.3492 241.036 70.4158 239.913 73.0868L240.19 73.203L240.467 73.3192C241.625 70.5622 242.201 67.4142 242.201 63.881H241.901ZM240.19 73.203L239.913 73.0888C238.828 75.724 237.321 77.8249 235.398 79.402L235.588 79.634L235.778 79.866C237.788 78.2178 239.35 76.0314 240.467 73.3172L240.19 73.203ZM235.588 79.634L235.4 79.4004C231.41 82.6152 226.426 84.231 220.425 84.231V84.531V84.831C226.539 84.831 231.663 83.1821 235.776 79.8676L235.588 79.634ZM220.425 84.531V84.231C216.463 84.231 211.968 84.0152 206.94 83.5831L206.914 83.882L206.888 84.1809C211.929 84.6141 216.442 84.831 220.425 84.831V84.531ZM206.914 83.882H207.214V41.815H206.914H206.614V83.882H206.914ZM206.914 41.815L206.935 42.1143C210.94 41.8394 214.984 41.702 219.068 41.702V41.402V41.102C214.971 41.102 210.912 41.2399 206.893 41.5157L206.914 41.815ZM255.024 84H254.724V84.3H255.024V84ZM255.024 41.815V41.515H254.724V41.815H255.024ZM274.612 41.815H274.912V41.515H274.612V41.815ZM274.612 44.293V44.593H274.912V44.293H274.612ZM257.856 44.293V43.993H257.556V44.293H257.856ZM257.856 59.81H257.556V60.11H257.856V59.81ZM273.019 59.81H273.319V59.51H273.019V59.81ZM273.019 62.229V62.529H273.319V62.229H273.019ZM257.856 62.229V61.929H257.556V62.229H257.856ZM257.856 81.522H257.556V81.822H257.856V81.522ZM275.261 81.522H275.561V81.222H275.261V81.522ZM275.261 84V84.3H275.561V84H275.261ZM255.024 84H255.324V41.815H255.024H254.724V84H255.024ZM255.024 41.815V42.115H274.612V41.815V41.515H255.024V41.815ZM274.612 41.815H274.312V44.293H274.612H274.912V41.815H274.612ZM274.612 44.293V43.993H257.856V44.293V44.593H274.612V44.293ZM257.856 44.293H257.556V59.81H257.856H258.156V44.293H257.856ZM257.856 59.81V60.11H273.019V59.81V59.51H257.856V59.81ZM273.019 59.81H272.719V62.229H273.019H273.319V59.81H273.019ZM273.019 62.229V61.929H257.856V62.229V62.529H273.019V62.229ZM257.856 62.229H257.556V81.522H257.856H258.156V62.229H257.856ZM257.856 81.522V81.822H275.261V81.522V81.222H257.856V81.522ZM275.261 81.522H274.961V84H275.261H275.561V81.522H275.261ZM275.261 84V83.7H255.024V84V84.3H275.261V84ZM297.514 73.793L297.791 73.9078L297.793 73.9025L297.514 73.793ZM309.727 42.641V42.341H309.522L309.447 42.5315L309.727 42.641ZM311.438 42.641L311.722 42.5444L311.652 42.341H311.438V42.641ZM322.117 74.029L322.401 73.9341L322.401 73.9324L322.117 74.029ZM323.769 79.398L323.478 79.4708L324.06 79.4687L323.769 79.398ZM325.421 74.088L325.704 74.1873L325.705 74.1836L325.421 74.088ZM336.277 41.815V41.515H336.061L335.992 41.7194L336.277 41.815ZM339.227 41.815L339.51 41.9129L339.648 41.515H339.227V41.815ZM324.536 84.354V84.654H324.749L324.819 84.4519L324.536 84.354ZM322.884 84.354L322.6 84.4529L322.671 84.654H322.884V84.354ZM311.969 53.084L311.682 53.1723L311.685 53.1829L311.969 53.084ZM311.438 51.55L311.151 51.6382L311.154 51.6481L311.158 51.6577L311.438 51.55ZM311.025 50.193L310.737 50.2792L310.737 50.2792L311.025 50.193ZM310.671 49.19L310.386 49.2849L310.39 49.2967L310.395 49.3082L310.671 49.19ZM310.435 48.482L310.14 48.5408L310.144 48.5591L310.15 48.5769L310.435 48.482ZM310.376 48.128H310.676L310.091 48.0331L310.376 48.128ZM308.547 53.025L308.268 52.9126L308.267 52.9151L308.547 53.025ZM296.216 84.354V84.654H296.42L296.495 84.4639L296.216 84.354ZM294.564 84.354L294.28 84.4526L294.35 84.654H294.564V84.354ZM279.755 41.815V41.515H279.332L279.471 41.9136L279.755 41.815ZM282.882 41.815L283.166 41.7184L283.096 41.515H282.882V41.815ZM293.679 73.557L293.394 73.6536L293.396 73.6589L293.679 73.557ZM294.918 77.392L294.628 77.4718L294.631 77.4809L294.918 77.392ZM295.508 79.28L295.223 79.3749L295.569 80.4117L295.801 79.3437L295.508 79.28ZM297.514 73.793L297.793 73.9025L310.006 42.7505L309.727 42.641L309.447 42.5315L297.234 73.6835L297.514 73.793ZM309.727 42.641V42.941H311.438V42.641V42.341H309.727V42.641ZM311.438 42.641L311.154 42.7376L321.833 74.1256L322.117 74.029L322.401 73.9324L311.722 42.5444L311.438 42.641ZM322.117 74.029L321.832 74.1239C322.658 76.6015 323.205 78.3816 323.478 79.4708L323.769 79.398L324.06 79.3252C323.781 78.2117 323.227 76.4125 322.401 73.9341L322.117 74.029ZM323.769 79.398L324.06 79.4687C324.371 78.185 324.918 76.4259 325.704 74.1873L325.421 74.088L325.137 73.9887C324.35 76.2341 323.795 78.015 323.477 79.3273L323.769 79.398ZM325.421 74.088L325.705 74.1836L336.561 41.9106L336.277 41.815L335.992 41.7194L325.136 73.9924L325.421 74.088ZM336.277 41.815V42.115H339.227V41.815V41.515H336.277V41.815ZM339.227 41.815L338.943 41.7171L324.252 84.2561L324.536 84.354L324.819 84.4519L339.51 41.9129L339.227 41.815ZM324.536 84.354V84.054H322.884V84.354V84.654H324.536V84.354ZM322.884 84.354L323.167 84.2551L312.252 52.9851L311.969 53.084L311.685 53.1829L322.6 84.4529L322.884 84.354ZM311.969 53.084L312.255 52.9958C312.096 52.4777 311.917 51.9599 311.718 51.4423L311.438 51.55L311.158 51.6577C311.352 52.1628 311.527 52.6676 311.682 53.1722L311.969 53.084ZM311.438 51.55L311.724 51.4618C311.567 50.9509 311.43 50.4993 311.312 50.1068L311.025 50.193L310.737 50.2792C310.855 50.6734 310.993 51.1264 311.151 51.6382L311.438 51.55ZM311.025 50.193L311.312 50.1068C311.192 49.7063 311.07 49.3606 310.946 49.0718L310.671 49.19L310.395 49.3082C310.507 49.5701 310.621 49.8931 310.737 50.2792L311.025 50.193ZM310.671 49.19L310.955 49.0951L310.719 48.3871L310.435 48.482L310.15 48.5769L310.386 49.2849L310.671 49.19ZM310.435 48.482L310.729 48.4232C310.709 48.3262 310.695 48.2511 310.686 48.1967C310.682 48.1694 310.679 48.1492 310.677 48.135C310.675 48.118 310.676 48.1184 310.676 48.128H310.376H310.076C310.076 48.1767 310.085 48.2407 310.094 48.2953C310.105 48.3589 310.12 48.4411 310.14 48.5408L310.435 48.482ZM310.376 48.128L310.091 48.0331C309.621 49.4416 309.014 51.0679 308.268 52.9126L308.547 53.025L308.825 53.1374C309.574 51.2848 310.186 49.6464 310.66 48.2229L310.376 48.128ZM308.547 53.025L308.267 52.9151L295.936 84.2441L296.216 84.354L296.495 84.4639L308.826 53.1349L308.547 53.025ZM296.216 84.354V84.054H294.564V84.354V84.654H296.216V84.354ZM294.564 84.354L294.847 84.2554L280.038 41.7164L279.755 41.815L279.471 41.9136L294.28 84.4526L294.564 84.354ZM279.755 41.815V42.115H282.882V41.815V41.515H279.755V41.815ZM282.882 41.815L282.598 41.9116L293.395 73.6536L293.679 73.557L293.963 73.4604L283.166 41.7184L282.882 41.815ZM293.679 73.557L293.396 73.6589C293.906 75.0695 294.316 76.3403 294.628 77.4718L294.918 77.392L295.207 77.3122C294.89 76.1624 294.474 74.8765 293.961 73.4551L293.679 73.557ZM294.918 77.392L294.631 77.4809C294.984 78.619 295.182 79.253 295.223 79.3749L295.508 79.28L295.792 79.1851C295.754 79.071 295.559 78.4463 295.204 77.3031L294.918 77.392ZM295.508 79.28L295.801 79.3437C295.991 78.4702 296.648 76.6667 297.791 73.9078L297.514 73.793L297.236 73.6782C296.098 76.426 295.418 78.2805 295.214 79.2163L295.508 79.28ZM350.863 78.395L350.643 78.5987L350.644 78.5998L350.863 78.395ZM350.863 47.42L350.644 47.2152L350.644 47.2152L350.863 47.42ZM380.599 47.42L380.38 47.6248L380.381 47.6259L380.599 47.42ZM380.599 78.395L380.38 78.1902L380.38 78.1902L380.599 78.395ZM352.987 49.249L353.211 49.4488L353.212 49.4476L352.987 49.249ZM352.987 76.566L352.762 76.7646L352.763 76.7659L352.987 76.566ZM378.475 76.566L378.251 76.3661L378.25 76.3674L378.475 76.566ZM378.475 49.249L378.25 49.4476L378.252 49.4501L378.475 49.249ZM350.863 78.395L351.083 78.1913C347.244 74.0422 345.322 68.9443 345.322 62.878H345.022H344.722C344.722 69.0837 346.694 74.3305 350.643 78.5987L350.863 78.395ZM345.022 62.878H345.322C345.322 56.8117 347.244 51.7341 351.082 47.6248L350.863 47.42L350.644 47.2152C346.694 51.4446 344.722 56.6723 344.722 62.878H345.022ZM350.863 47.42L351.082 47.6248C354.956 43.4794 359.832 41.407 365.731 41.407V41.107V40.807C359.673 40.807 354.636 42.9432 350.644 47.2152L350.863 47.42ZM365.731 41.107V41.407C371.63 41.407 376.506 43.4794 380.38 47.6248L380.599 47.42L380.818 47.2152C376.826 42.9432 371.789 40.807 365.731 40.807V41.107ZM380.599 47.42L380.381 47.6259C384.258 51.7354 386.199 56.8126 386.199 62.878H386.499H386.799C386.799 56.6714 384.807 51.4433 380.817 47.2141L380.599 47.42ZM386.499 62.878H386.199C386.199 68.9434 384.258 74.0409 380.38 78.1902L380.599 78.395L380.818 78.5998C384.807 74.3318 386.799 69.0846 386.799 62.878H386.499ZM380.599 78.395L380.38 78.1902C376.506 82.3356 371.63 84.408 365.731 84.408V84.708V85.008C371.789 85.008 376.826 82.8718 380.818 78.5998L380.599 78.395ZM365.731 84.708V84.408C359.832 84.408 354.956 82.3356 351.082 78.1902L350.863 78.395L350.644 78.5998C354.636 82.8718 359.673 85.008 365.731 85.008V84.708ZM352.987 49.249L352.763 49.0492C349.444 52.7682 347.79 57.3848 347.79 62.878H348.09H348.39C348.39 57.5152 350.001 53.0458 353.211 49.4488L352.987 49.249ZM348.09 62.878H347.79C347.79 68.3712 349.444 73.0067 352.762 76.7646L352.987 76.566L353.212 76.3674C350.001 72.7306 348.39 68.2408 348.39 62.878H348.09ZM352.987 76.566L352.763 76.7659C356.127 80.5302 360.458 82.412 365.731 82.412V82.112V81.812C360.62 81.812 356.455 79.9964 353.211 76.3661L352.987 76.566ZM365.731 82.112V82.412C371.042 82.412 375.374 80.5307 378.7 76.7646L378.475 76.566L378.25 76.3674C375.046 79.996 370.882 81.812 365.731 81.812V82.112ZM378.475 76.566L378.699 76.7659C382.057 73.0082 383.731 68.3722 383.731 62.878H383.431H383.131C383.131 68.2398 381.501 72.7291 378.251 76.3661L378.475 76.566ZM383.431 62.878H383.731C383.731 57.3838 382.057 52.7668 378.698 49.0479L378.475 49.249L378.252 49.4501C381.501 53.0472 383.131 57.5162 383.131 62.878H383.431ZM378.475 49.249L378.7 49.0504C375.374 45.2843 371.042 43.403 365.731 43.403V43.703V44.003C370.882 44.003 375.046 45.819 378.25 49.4476L378.475 49.249ZM365.731 43.703V43.403C360.419 43.403 356.087 45.2843 352.762 49.0504L352.987 49.249L353.212 49.4476C356.416 45.819 360.58 44.003 365.731 44.003V43.703ZM399.586 84H399.286V84.3H399.586V84ZM399.586 41.992L399.564 41.6928L399.286 41.7133V41.992H399.586ZM418.879 44.706L418.691 44.9399L418.693 44.9416L418.879 44.706ZM420.531 60.577L420.283 60.4085L420.283 60.4085L420.531 60.577ZM415.516 65.828L415.343 65.5825L415.094 65.7576L415.273 66.0042L415.516 65.828ZM420.885 73.026L420.646 73.2076L420.649 73.2113L420.885 73.026ZM425.074 78.218L424.85 78.4174L424.855 78.4233L425.074 78.218ZM433.216 82.584L433.516 82.5934L433.524 82.318L433.251 82.286L433.216 82.584ZM433.157 84.472L433.152 84.772L433.447 84.7768L433.457 84.4814L433.157 84.472ZM427.316 83.41L427.187 83.6812L427.193 83.6838L427.316 83.41ZM423.009 80.224L422.791 80.43L422.794 80.4331L423.009 80.224ZM412.92 67.008L413.162 66.8313L413.072 66.708H412.92V67.008ZM402.418 66.654L402.44 66.3548L402.118 66.3307V66.654H402.418ZM402.418 84V84.3H402.718V84H402.418ZM416.755 61.226L416.528 61.0301L416.528 61.0301L416.755 61.226ZM416.637 46.476L416.452 46.7121L416.457 46.716L416.637 46.476ZM402.418 44.352L402.398 44.0527L402.118 44.0713V44.352H402.418ZM402.418 64.353H402.118V64.6348L402.399 64.6524L402.418 64.353ZM399.586 84H399.886V41.992H399.586H399.286V84H399.586ZM399.586 41.992L399.608 42.2912C403.34 42.0162 406.459 41.879 408.967 41.879V41.579V41.279C406.44 41.279 403.305 41.4172 399.564 41.6928L399.586 41.992ZM408.967 41.579V41.879C412.925 41.879 416.159 42.9063 418.691 44.9399L418.879 44.706L419.067 44.4721C416.407 42.3364 413.033 41.279 408.967 41.279V41.579ZM418.879 44.706L418.693 44.9416C421.206 46.9215 422.473 49.7391 422.473 53.438H422.773H423.073C423.073 49.5849 421.744 46.5812 419.065 44.4704L418.879 44.706ZM422.773 53.438H422.473C422.473 55.932 421.745 58.2534 420.283 60.4085L420.531 60.577L420.779 60.7454C422.306 58.4952 423.073 56.0573 423.073 53.438H422.773ZM420.531 60.577L420.283 60.4085C418.805 62.5864 417.158 64.3087 415.343 65.5825L415.516 65.828L415.688 66.0735C417.571 64.7513 419.268 62.9729 420.779 60.7454L420.531 60.577ZM415.516 65.828L415.273 66.0042C416.73 68.0126 418.521 70.4138 420.646 73.2076L420.885 73.026L421.124 72.8444C419 70.0528 417.212 67.6554 415.759 65.6518L415.516 65.828ZM420.885 73.026L420.649 73.2113C422.81 75.9624 424.213 77.7011 424.85 78.4173L425.074 78.218L425.298 78.0187C424.676 77.3189 423.286 75.5963 421.121 72.8407L420.885 73.026ZM425.074 78.218L424.855 78.4233C427.295 81.0234 430.072 82.5185 433.181 82.882L433.216 82.584L433.251 82.286C430.303 81.9415 427.651 80.5259 425.293 78.0127L425.074 78.218ZM433.216 82.584L432.916 82.5746L432.857 84.4626L433.157 84.472L433.457 84.4814L433.516 82.5934L433.216 82.584ZM433.157 84.472L433.162 84.172C430.786 84.1331 428.883 83.7824 427.438 83.1362L427.316 83.41L427.193 83.6838C428.738 84.3749 430.729 84.7322 433.152 84.772L433.157 84.472ZM427.316 83.41L427.444 83.1389C425.988 82.4489 424.58 81.4101 423.224 80.0149L423.009 80.224L422.794 80.4331C424.191 81.8699 425.655 82.9551 427.187 83.6811L427.316 83.41ZM423.009 80.224L423.227 80.018C421.906 78.6194 418.556 74.2334 413.162 66.8313L412.92 67.008L412.677 67.1847C418.061 74.5719 421.437 78.9966 422.791 80.43L423.009 80.224ZM412.92 67.008V66.708C409.071 66.708 405.578 66.5902 402.44 66.3548L402.418 66.654L402.395 66.9532C405.551 67.1898 409.059 67.308 412.92 67.308V67.008ZM402.418 66.654H402.118V84H402.418H402.718V66.654H402.418ZM402.418 84V83.7H399.586V84V84.3H402.418V84ZM411.209 64.648V64.948C413.074 64.948 414.998 63.7229 416.982 61.4219L416.755 61.226L416.528 61.0301C414.578 63.2918 412.805 64.348 411.209 64.348V64.648ZM416.755 61.226L416.982 61.4219C418.995 59.0865 420.005 56.3818 420.005 53.32H419.705H419.405C419.405 56.2368 418.448 58.8028 416.528 61.0301L416.755 61.226ZM419.705 53.32H420.005C420.005 50.2166 418.952 47.8375 416.817 46.236L416.637 46.476L416.457 46.716C418.412 48.1825 419.405 50.3661 419.405 53.32H419.705ZM416.637 46.476L416.822 46.2399C414.749 44.6139 412.002 43.816 408.613 43.816V44.116V44.416C411.91 44.416 414.513 45.1915 416.452 46.7121L416.637 46.476ZM408.613 44.116V43.816C406.834 43.816 404.762 43.895 402.398 44.0527L402.418 44.352L402.438 44.6513C404.793 44.4943 406.851 44.416 408.613 44.416V44.116ZM402.418 44.352H402.118V64.353H402.418H402.718V44.352H402.418ZM402.418 64.353L402.399 64.6524C405.551 64.8494 408.488 64.948 411.209 64.948V64.648V64.348C408.502 64.348 405.578 64.2499 402.437 64.0536L402.418 64.353ZM463.79 41.815L464.015 42.013L464.453 41.515H463.79V41.815ZM445.854 62.229L445.628 62.031L445.459 62.2241L445.624 62.4214L445.854 62.229ZM454.114 71.846L453.888 72.0439L453.89 72.0453L454.114 71.846ZM460.191 78.395L459.989 78.6166L459.993 78.6208L460.191 78.395ZM462.374 80.283L462.18 80.512L462.189 80.52L462.199 80.5271L462.374 80.283ZM464.852 81.64L464.725 81.9122L464.734 81.9157L464.852 81.64ZM468.392 82.584L468.692 82.5934L468.7 82.3202L468.429 82.2863L468.392 82.584ZM468.333 84.472L468.328 84.772L468.623 84.7769L468.633 84.4814L468.333 84.472ZM462.492 83.41L462.366 83.6824L462.372 83.685L462.492 83.41ZM458.48 80.696L458.268 80.9082L458.271 80.9118L458.48 80.696ZM450.987 72.436L450.76 72.6324L450.762 72.6346L450.987 72.436ZM442.373 62.347L442.148 62.1485L441.978 62.3411L442.142 62.5387L442.373 62.347ZM460.486 41.815V41.515H460.35L460.261 41.6165L460.486 41.815ZM441.252 41.815H441.552V41.515H441.252V41.815ZM441.252 84V84.3H441.552V84H441.252ZM438.42 84H438.12V84.3H438.42V84ZM438.42 41.815V41.515H438.12V41.815H438.42ZM463.79 41.815L463.564 41.617L445.628 62.031L445.854 62.229L446.079 62.427L464.015 42.013L463.79 41.815ZM445.854 62.229L445.624 62.4214C448.025 65.295 450.78 68.5025 453.888 72.0439L454.114 71.846L454.339 71.6481C451.233 68.1095 448.481 64.9057 446.084 62.0366L445.854 62.229ZM454.114 71.846L453.89 72.0453C457.033 75.5812 459.07 77.7777 459.989 78.6165L460.191 78.395L460.393 78.1735C459.503 77.3603 457.488 75.1908 454.338 71.6467L454.114 71.846ZM460.191 78.395L459.993 78.6208C460.938 79.4471 461.667 80.0777 462.18 80.512L462.374 80.283L462.568 80.054C462.058 79.6229 461.332 78.9949 460.388 78.1692L460.191 78.395ZM462.374 80.283L462.199 80.5271C462.773 80.9365 463.618 81.3981 464.726 81.9121L464.852 81.64L464.978 81.3679C463.883 80.8593 463.076 80.4161 462.548 80.0389L462.374 80.283ZM464.852 81.64L464.734 81.9157C465.862 82.3994 467.07 82.7211 468.355 82.8817L468.392 82.584L468.429 82.2863C467.197 82.1323 466.044 81.8246 464.97 81.3643L464.852 81.64ZM468.392 82.584L468.092 82.5746L468.033 84.4626L468.333 84.472L468.633 84.4814L468.692 82.5934L468.392 82.584ZM468.333 84.472L468.338 84.172C466.002 84.1331 464.098 83.7828 462.612 83.135L462.492 83.41L462.372 83.685C463.954 84.3746 465.943 84.7322 468.328 84.772L468.333 84.472ZM462.492 83.41L462.618 83.1376C461.112 82.4428 459.803 81.5567 458.688 80.4802L458.48 80.696L458.271 80.9118C459.438 82.038 460.804 82.9612 462.366 83.6824L462.492 83.41ZM458.48 80.696L458.692 80.4839C457.559 79.3512 455.068 76.6056 451.212 72.2374L450.987 72.436L450.762 72.6346C454.615 76.9984 457.119 79.7595 458.268 80.9081L458.48 80.696ZM450.987 72.436L451.214 72.2396C447.399 67.8347 444.529 64.4736 442.604 62.1553L442.373 62.347L442.142 62.5387C444.071 64.8618 446.944 68.2267 450.76 72.6324L450.987 72.436ZM442.373 62.347L442.598 62.5455L460.711 42.0135L460.486 41.815L460.261 41.6165L442.148 62.1485L442.373 62.347ZM460.486 41.815V42.115H463.79V41.815V41.515H460.486V41.815ZM441.252 41.815H440.952V84H441.252H441.552V41.815H441.252ZM441.252 84V83.7H438.42V84V84.3H441.252V84ZM438.42 84H438.72V41.815H438.42H438.12V84H438.42ZM438.42 41.815V42.115H441.252V41.815V41.515H438.42V41.815Z" fill="#80DAFD" mask="url(#path-3-outside-1_3556_553)"/>
<g clip-path="url(#clip0_3556_553)">
<path d="M471.291 14.3083H467.018V25.3333H464.101V14.3083H459.916V12.2083H471.291V14.3083ZM476.687 12.2083L480.333 21.6875L483.847 12.2083H487.624V25.3333H484.708V21.6875L485.029 15.475L481.251 25.3333H479.283L475.52 15.4896L475.812 21.6875V25.3333H472.895V12.2083H476.687Z" fill="white"/>
</g>
<defs>
<clipPath id="clip0_3556_553">
<rect width="35" height="35" fill="white" transform="translate(457 2)"/>
</clipPath>
</defs>
</svg>
